<?xml version="1.0" encoding="utf-8"?>
<!-- Generator: Adobe Illustrator 18.0.0, SVG Export Plug-In . SVG Version: 6.00 Build 0)  -->
<!DOCTYPE svg PUBLIC "-//W3C//DTD SVG 1.1//EN" "http://www.w3.org/Graphics/SVG/1.1/DTD/svg11.dtd">
<svg version="1.1" id="Layer_1" xmlns="http://www.w3.org/2000/svg" xmlns:xlink="http://www.w3.org/1999/xlink" x="0px" y="0px"
	 viewBox="94.7 2326.3 2220 1018.8" enable-background="new 94.7 2326.3 2220 1018.8" xml:space="preserve">
<g>
	<g>
		<path fill-rule="evenodd" clip-rule="evenodd" fill="#ffffff" d="M94.7,2543.4h65.3v-80.8h84.6v-50.5h-84.6v-26.4h98.6v-54.4H94.7
			V2543.4L94.7,2543.4z M281.8,2543.4h65.3v-74h34.7c25.8,0,27.6,21.1,29.4,41.3c0.9,11,2.1,22,5.3,32.7H482
			c-5.9-9.8-6.2-35-7.1-45.4c-2.4-26.4-13.4-46-31.2-52.9c21.7-8,31.8-31.2,31.8-53.2c0-40.1-32.1-60.6-69.2-60.6H281.8V2543.4
			L281.8,2543.4z M347.2,2381.8h30.6c24.9,0,32.4,7.7,32.4,21.1c0,19-16.6,21.1-28.8,21.1h-34.2V2381.8L347.2,2381.8z M501.9,2543.4
			h178.8V2489H567.2v-26.4h100.1v-50.5H567.2v-26.4h110.2v-54.4H501.9V2543.4L501.9,2543.4z M697.6,2472.1
			c0.6,67.7,69.2,76.3,93.3,76.3c47.2,0,98-17.8,98-73.1c0-38.9-29.7-52.9-59.7-61.2c-30-8.3-60.3-11.6-61.5-26.7
			c0-11.9,14.6-14.3,23.5-14.3c6.5,0,14,1.5,19.3,5.3c5.3,3.6,8.9,8.9,7.7,16.9H880c-1.8-51.7-42.5-69.2-88.5-69.2
			c-43.7,0-85.5,21.1-85.5,70.1c0,42.8,38.3,52,71.9,61.5c36.5,10.4,45.7,13.4,45.7,24.4c0,15.7-16.3,19.3-27,19.3
			c-12.2,0-26.4-2.7-31.2-15.4c-1.5-3.9-2.4-8.6-2.4-14H697.6L697.6,2472.1z M909.1,2543.4h65.3v-83.8h61.2v83.8h65.3v-212.1h-65.3
			v74h-61.2v-74h-65.3V2543.4z"/>
		<path fill-rule="evenodd" clip-rule="evenodd" fill="#ffffff" d="M1243.9,2530.2h46.1v-121.7v-6h6h0.6h4.6l1.2,4.4l33.4,123.2
			h36.6l33.4-123.2l1.2-4.4h4.6h0.6h6v6v121.7h46.1v-187.1h-76.6l-27.3,112.5l-1.1,4.6h-4.7h-0.6h-4.7l-1.1-4.6l-27.3-112.5h-76.6
			V2530.2L1243.9,2530.2z M1295.9,2542.2h-58h-6v-6v-199v-6h6h87.3h4.7l1.1,4.6l22.9,94.4l22.9-94.4l1.1-4.6h4.7h87.2h6v6v199v6h-6
			h-58h-6v-6v-84.9l-23.4,86.5l-1.2,4.4h-4.6H1331h-4.6l-1.2-4.4l-23.4-86.5v84.9v6H1295.9L1295.9,2542.2z M1568,2463.3l19.2-61.3
			l1.3-4.2h4.4h0.6h4.5l1.3,4.3l17.8,61.3l2.2,7.6h-7.9h-37.6h-8.1L1568,2463.3L1568,2463.3z M1593,2423.4l-11.2,35.7h21.6
			L1593,2423.4L1593,2423.4z M1498.3,2530.2h48.7l7.6-24.2l1.3-4.2h4.4h63.3h4.4l1.3,4.3l7.1,24.1h50.6l-68.1-187.1h-51.6
			L1498.3,2530.2L1498.3,2530.2z M1551.4,2542.2h4.4l1.3-4.2l7.6-24.2h54.5l7.1,24.1l1.3,4.3h4.4h63.6h8.5l-2.9-8l-72.5-199
			l-1.4-3.9h-4.2h-59.9h-4.1l-1.4,3.9l-73.3,199l-3,8h8.5H1551.4L1551.4,2542.2z M1723.3,2530.2h49.4v-52.9v-2.3l1.6-1.7l17-18.7
			l5.3-5.8l4.2,6.6l47.3,74.7h61.8l-77.4-111.9l-2.7-3.9l3.3-3.5l62.9-67.8h-59l-52.8,66.3l-1.8,2.3h-2.9h-0.6h-6v-6v-62.6h-49.4
			V2530.2L1723.3,2530.2z M1778.7,2542.2h-61.3h-6v-6v-199v-6h6h61.3h6v6v52.2l44.6-55.9l1.8-2.3h2.9h75.5h13.7l-9.3,10l-68.9,74.3
			l81.2,117.3l6.5,9.3h-11.4h-76.4h-3.3l-1.8-2.8l-44.9-70.9l-10.2,11.2v56.5v6H1778.7L1778.7,2542.2z M1945,2530.2h155.9v-39.1
			h-100.5h-6v-6v-24.8v-6h6h88v-35.5h-88h-6v-6v-24.8v-6h6h97.5v-39.1H1945V2530.2L1945,2530.2z M2106.8,2542.2H1939h-6v-6v-199v-6
			h6h164.7h6v6v51v6h-6h-97.5v12.9h88h6v6v47.4v6h-6h-88v12.9h100.5h6v6v51v6H2106.8L2106.8,2542.2z M2135.5,2475.3
			c1.6,19,9.8,32,20.6,40.9c19.5,16,47.6,18.8,60.8,18.8c23.4,0,47.7-4.8,64.5-17.3h0c13-9.7,21.5-24.3,21.5-45.3
			c0-16.2-6.1-27.2-15.3-34.9c-9.7-8.1-22.9-13-36.3-16.8c-6.1-1.7-12-3.1-17.6-4.5c-23.6-5.7-43.3-10.4-44.5-25.9l0-0.5
			c0-7.1,3.5-11.8,8.6-14.8c5.9-3.6,13.7-4.5,19.4-4.5c3.7,0,7.8,0.5,11.7,1.6c3.5,1,6.8,2.4,9.7,4.5c3.5,2.4,6.5,5.4,8.3,9.4
			c0.8,1.7,1.3,3.5,1.6,5.5h45.7c-1.9-17-9.1-29.2-19.6-37.4c-14.3-11.2-34.9-15.6-57-15.6c-20.8,0-41,5.3-55.1,16.9
			c-11.7,9.6-19.2,23.7-19.2,43c0,34.2,31.2,43,59.7,51l3.4,1h0c17.4,5,28.4,8.2,35.3,11.6h0c8.9,4.4,11.9,9.2,11.9,17
			c0,8.4-3.7,14.2-9.1,18c-6.6,4.7-15.5,6.1-22.2,6.1c-6.3,0-13.2-0.7-19.4-3.2c-6.8-2.7-12.5-7.4-15.4-15.2h0
			c-0.9-2.2-1.5-4.7-2-7.3c-0.1-0.6-0.2-1.3-0.3-1.9H2135.5L2135.5,2475.3z M2148.5,2525.3c-14.3-11.7-24.9-29.4-25.2-56l-0.1-6h6
			h61.3h6v6c0,2.2,0.2,4.1,0.5,5.9c0.3,1.9,0.8,3.6,1.3,5l0,0c1.6,4.2,4.8,6.8,8.6,8.3c4.5,1.8,9.9,2.3,15.1,2.3
			c4.9,0,11.2-0.9,15.3-3.8c2.4-1.7,4.1-4.3,4.1-8.3c0-2.6-1.3-4.3-5.3-6.3l0,0c-6-3-16.5-6-33.3-10.8v0l-3.4-0.9
			c-32.7-9.2-68.4-19.3-68.4-62.5c0-23.2,9.2-40.4,23.6-52.2c16.3-13.4,39.3-19.6,62.6-19.6c24.6,0,47.7,5.2,64.4,18.2
			c14.5,11.3,23.8,28.3,24.7,52.6l0.2,6.2h-6.2h-58h-6.9l1-6.8c0.3-2.3,0.1-4.2-0.6-5.7c-0.8-1.8-2.3-3.2-4.1-4.4l-0.2-0.1
			c-1.7-1.3-3.9-2.2-6.1-2.8c-2.7-0.8-5.7-1.1-8.5-1.1c-4.1,0-9.7,0.6-13.3,2.7c-1.6,1-2.7,2.4-2.8,4.5c0.9,6.7,16.6,10.5,35.3,15
			c5.9,1.4,12.1,2.9,18,4.5c14.7,4.1,29.5,9.6,40.8,19.1c11.8,9.9,19.6,23.7,19.6,44c0,25.3-10.5,43-26.4,54.8l0,0
			c-19.1,14.2-45.9,19.7-71.6,19.7C2202.2,2546.9,2170.8,2543.6,2148.5,2525.3z"/>
	</g>
	<g>
		<path fill-rule="evenodd" clip-rule="evenodd" fill="#ffffff" d="M865.2,3340h41.3v-116.7h-86.7v45.4h28.8
			c-3.3,15.7-18.7,23.5-33.9,23.5c-39.8,0-47.8-34.7-47.8-54.6c0-14.6-1.5-61.8,43.4-61.8c15.4,0,28.5,11,30.9,26.4h62.7
			c-9.5-49.9-43.7-79.3-97.7-79.3c-47.8,0-104.5,32.4-104.5,113.2c0,60.3,38.6,109,101.3,109c23.2,0,45.7-8,60.3-26.7L865.2,3340
			L865.2,3340z M932.6,3234c0,64.7,43.1,111.1,107.5,111.1c64.4,0,107.5-46.3,107.5-111.1s-43.1-111.1-107.5-111.1
			C975.7,3122.9,932.6,3169.2,932.6,3234L932.6,3234z M998,3234c0-47.2,25.5-58.2,42.2-58.2c16.6,0,42.2,11,42.2,58.2
			c0,47.2-25.5,58.2-42.2,58.2C1023.5,3292.2,998,3281.2,998,3234L998,3234z M1169,3234c0,64.7,43.1,111.1,107.5,111.1
			c64.4,0,107.5-46.3,107.5-111.1s-43.1-111.1-107.5-111.1C1212.1,3122.9,1169,3169.2,1169,3234L1169,3234z M1234.4,3234
			c0-47.2,25.5-58.2,42.2-58.2c16.6,0,42.2,11,42.2,58.2c0,47.2-25.5,58.2-42.2,58.2C1259.9,3292.2,1234.4,3281.2,1234.4,3234
			L1234.4,3234z M1411.7,3340h94.4c74,0,108.4-41.3,108.4-106.3c0-53.5-24.9-105.7-95.6-105.7h-107.2V3340L1411.7,3340z
			 M1477,3182.3h20.8c47.2,0,51.4,37.1,51.4,50.5c0,19.9-5.9,52.9-46.6,52.9H1477V3182.3z"/>
		<path fill-rule="evenodd" clip-rule="evenodd" fill="#ffffff" d="M1649.9,3327h46.1v-43.3h-46.1V3327L1649.9,3327z M1701.9,3338.9
			h-58h-6v-6v-55.2v-6h6h58h6v6v55.2v6H1701.9z"/>
	</g>
	<g>
		<path fill-rule="evenodd" clip-rule="evenodd" fill="#ffffff" d="M1646.1,3067h49.4v-187.1h-49.4V3067L1646.1,3067z M1701.4,3079
			h-61.3h-6v-6v-199v-6h6h61.3h6v6v199v6H1701.4L1701.4,3079z M1733.1,3012.1c1.6,19,9.8,32,20.6,40.9c19.5,16,47.6,18.8,60.8,18.8
			c23.4,0,47.7-4.8,64.5-17.3h0c13-9.7,21.5-24.3,21.5-45.3c0-16.2-6.1-27.2-15.3-34.9c-9.7-8.1-22.9-13-36.3-16.8
			c-6.1-1.7-12-3.1-17.6-4.5c-23.6-5.7-43.3-10.4-44.5-25.9l0-0.5c0-7.1,3.5-11.8,8.6-14.8c5.9-3.6,13.7-4.5,19.4-4.5
			c3.7,0,7.8,0.5,11.7,1.6c3.5,1,6.8,2.4,9.7,4.5c3.5,2.4,6.5,5.4,8.3,9.4c0.8,1.7,1.3,3.5,1.6,5.5h45.7c-1.9-17-9.1-29.2-19.6-37.4
			c-14.3-11.2-34.9-15.6-57-15.6c-20.8,0-41,5.3-55.1,16.9c-11.7,9.6-19.2,23.7-19.2,43c0,34.2,31.2,43,59.7,51l3.4,1h0
			c17.4,5,28.4,8.2,35.3,11.6h0c8.9,4.4,11.9,9.2,11.9,17c0,8.4-3.7,14.2-9.1,18c-6.6,4.7-15.5,6.1-22.2,6.1
			c-6.3,0-13.3-0.7-19.4-3.2c-6.8-2.7-12.5-7.4-15.4-15.2h0c-0.9-2.2-1.5-4.7-2-7.3c-0.1-0.6-0.2-1.3-0.3-1.9H1733.1L1733.1,3012.1z
			 M1746.1,3062.1c-14.3-11.7-24.9-29.4-25.2-56l-0.1-6h6h61.3h6v6c0,2.2,0.2,4.1,0.5,5.9c0.3,1.9,0.8,3.6,1.3,5l0,0
			c1.6,4.2,4.8,6.8,8.6,8.3c4.5,1.8,9.9,2.3,15.1,2.3c4.9,0,11.2-0.9,15.3-3.8c2.4-1.7,4.1-4.3,4.1-8.3c0-2.6-1.3-4.3-5.3-6.3l0,0
			c-6-3-16.5-6-33.3-10.8l0,0l-3.4-0.9c-32.7-9.2-68.4-19.3-68.4-62.5c0-23.2,9.2-40.4,23.6-52.2c16.3-13.4,39.3-19.6,62.6-19.6
			c24.6,0,47.7,5.2,64.3,18.2c14.5,11.3,23.8,28.3,24.7,52.6l0.2,6.1h-6.2h-58h-6.9l1-6.8c0.3-2.3,0.1-4.2-0.6-5.7
			c-0.8-1.8-2.3-3.2-4.1-4.4l-0.2-0.1c-1.7-1.3-3.9-2.2-6.1-2.8c-2.7-0.8-5.7-1.1-8.5-1.1c-4.1,0-9.7,0.6-13.3,2.7
			c-1.6,1-2.7,2.4-2.8,4.5c0.9,6.7,16.6,10.5,35.3,15c5.9,1.4,12.1,2.9,18,4.5c14.7,4.1,29.5,9.6,40.8,19.1
			c11.8,9.9,19.6,23.8,19.6,44c0,25.3-10.5,43-26.4,54.8l0,0c-19.1,14.2-45.9,19.7-71.6,19.7
			C1799.8,3083.7,1768.5,3080.4,1746.1,3062.1z"/>
		<path fill-rule="evenodd" clip-rule="evenodd" fill="#ffffff" d="M509,3067h49.4v-72.6v-6h6h57.4h6v6v72.6h49.4v-187.1h-49.4v63.4
			v6h-6h-57.4h-6v-6v-63.4H509V3067L509,3067z M564.4,3078.9H503h-6v-6v-199v-6h6h61.3h6v6v63.4h45.5v-63.4v-6h6h61.3h6v6v199v6h-6
			h-61.3h-6v-6v-72.6h-45.5v72.6v6H564.4L564.4,3078.9z M781.2,3000.1l19.2-61.3l1.3-4.2h4.4h0.6h4.5l1.3,4.3l17.8,61.3l2.2,7.6
			h-7.9h-37.6h-8.1L781.2,3000.1L781.2,3000.1z M806.2,2960.2l-11.2,35.7h21.6L806.2,2960.2L806.2,2960.2z M711.5,3067h48.7
			l7.6-24.2l1.3-4.2h4.4h63.3h4.4l1.3,4.3l7.1,24.1h50.6l-68.1-187.1h-51.6L711.5,3067L711.5,3067z M764.6,3078.9h4.4l1.3-4.2
			l7.6-24.2h54.5l7.1,24.1l1.3,4.3h4.4h63.6h8.5l-2.9-8l-72.5-199l-1.4-3.9h-4.2h-59.9h-4.1l-1.4,3.9l-73.3,199l-2.9,8h8.5H764.6
			L764.6,3078.9z M934.9,3067h49.4v-54.2v-6h6h36.2c22.3,0,41-5.6,53.7-17.1h0c11.6-10.5,18.4-26.3,18.4-47.7
			c0-14.7-5.5-32.7-19.2-45.4c-10.5-9.8-26.1-16.6-47.8-16.6h-96.6V3067L934.9,3067z M990.2,3078.9h-61.3h-6v-6v-199v-6h6h102.6
			c25.2,0,43.4,8.1,55.9,19.8c16.4,15.3,23.1,36.7,23.1,54.1c0,25-8.2,43.7-22.3,56.5l0,0c-15,13.6-36.5,20.2-61.7,20.2h-30.3v54.2
			v6H990.2L990.2,3078.9z M990.2,2919h27.3c8.2,0,16.2,0.3,22.7,3.4c7.4,3.5,12.3,9.9,12.3,21.8c0,12.9-5.6,19.8-13.9,23.5
			c-7.2,3.3-16.1,3.6-24.7,3.6h-23.7h-6v-6V2925v-6H990.2L990.2,2919z M1017.5,2930.9c6.8,0,13.3,0.2,17.6,2.2
			c3.3,1.6,5.4,4.8,5.4,11c0,7.2-2.8,10.9-6.8,12.7c-5.1,2.3-12.5,2.5-19.8,2.5h-17.7v-28.5H1017.5L1017.5,2930.9z M1134.8,3067
			h49.4v-54.2v-6h6h36.2c22.3,0,41-5.6,53.7-17.1h0c11.6-10.5,18.4-26.3,18.4-47.7c0-14.7-5.5-32.7-19.2-45.4
			c-10.5-9.8-26.1-16.6-47.8-16.6h-96.6V3067L1134.8,3067z M1190.2,3078.9h-61.3h-6v-6v-199v-6h6h102.6c25.2,0,43.4,8.1,55.9,19.8
			c16.4,15.3,23.1,36.7,23.1,54.1c0,25-8.2,43.7-22.3,56.5l0,0c-15,13.6-36.5,20.2-61.7,20.2h-30.3v54.2v6H1190.2L1190.2,3078.9z
			 M1190.2,2919h27.3c8.2,0,16.2,0.3,22.7,3.4c7.4,3.5,12.3,9.9,12.3,21.8c0,12.9-5.6,19.8-13.9,23.5c-7.2,3.3-16.1,3.6-24.7,3.6
			h-23.7h-6v-6V2925v-6H1190.2L1190.2,2919z M1217.5,2930.9c6.8,0,13.3,0.2,17.6,2.2c3.3,1.6,5.4,4.8,5.4,11
			c0,7.2-2.8,10.9-6.8,12.7c-5.1,2.3-12.5,2.5-19.8,2.5h-17.7v-28.5H1217.5L1217.5,2930.9z M1382.2,3067h49.4v-67.3v-1.5l0.8-1.4
			l66.3-116.8h-53.2l-33,69.9l-5.5,11.7l-5.3-11.7l-31.6-69.8h-53.8l65,116.9l0.8,1.4v1.5V3067L1382.2,3067z M1437.6,3078.9h-61.3
			h-6v-6v-71.8l-69.2-124.3l-4.9-8.9h10.1h67.7h3.8l1.6,3.5l27.9,61.6l29.1-61.7l1.6-3.4h3.8h67.2h10.2l-5.1,8.9l-70.6,124.3v71.8v6
			H1437.6z"/>
	</g>
	<g>
		<path fill-rule="evenodd" clip-rule="evenodd" fill="#ffffff" d="M577.8,2620.6h-49.4v102.5c0,23,0,51.7-35,51.7
			c-17.9,0-27-7.9-31.6-18.9c-4.2-10-4.2-22.1-4.2-32.8v-102.5h-49.4v116.1c0,25.8,6.9,44.8,20.6,57.1c14,12.5,35.4,18.6,64.3,18.6
			c28.9,0,50.2-6.1,64.1-18.6c13.7-12.3,20.5-31.3,20.5-57.1V2620.6L577.8,2620.6z M522.4,2608.7h61.3h6v6v122.1
			c0,29.4-8.1,51.3-24.5,66c-16.2,14.5-40.2,21.7-72.1,21.7c-31.9,0-55.9-7.1-72.2-21.7c-16.5-14.7-24.7-36.6-24.7-66v-122.1v-6h6
			h61.3h6v6v108.4c0,9.6,0,20.4,3.3,28.2c2.8,6.7,8.7,11.6,20.6,11.6c23,0,23-22.1,23-39.8v-108.4v-6H522.4L522.4,2608.7z
			 M614.8,2752.7c1.6,19,9.8,32,20.6,40.9c19.5,16,47.6,18.8,60.8,18.8c23.4,0,47.7-4.8,64.5-17.3h0c13-9.7,21.5-24.3,21.5-45.3
			c0-16.2-6.1-27.2-15.3-34.9c-9.7-8.1-22.9-13-36.3-16.8c-6.1-1.7-12-3.1-17.6-4.5c-23.6-5.7-43.3-10.4-44.5-25.9l0-0.5
			c0-7.1,3.5-11.8,8.6-14.8c5.9-3.6,13.7-4.5,19.4-4.5c3.7,0,7.8,0.5,11.7,1.6c3.5,1,6.8,2.4,9.7,4.5c3.5,2.4,6.5,5.4,8.3,9.4
			c0.8,1.7,1.3,3.5,1.6,5.5h45.7c-1.9-17-9.1-29.2-19.6-37.4c-14.3-11.2-34.9-15.6-57-15.6c-20.8,0-41,5.3-55.1,16.9
			c-11.7,9.6-19.2,23.7-19.2,43c0,34.2,31.2,43,59.7,51l3.4,1h0c17.4,5,28.4,8.2,35.3,11.6h0c8.9,4.4,11.9,9.2,11.9,17
			c0,8.4-3.7,14.2-9.1,18c-6.6,4.7-15.5,6.1-22.2,6.1c-6.3,0-13.2-0.7-19.4-3.2c-6.8-2.7-12.5-7.4-15.4-15.2l0,0
			c-0.9-2.2-1.5-4.7-2-7.3c-0.1-0.6-0.2-1.3-0.3-1.9H614.8L614.8,2752.7z M627.9,2802.8c-14.3-11.7-24.9-29.4-25.2-56l-0.1-6h6H670
			h6v6c0,2.2,0.2,4.1,0.5,5.9c0.3,1.9,0.8,3.6,1.3,5l0,0.1c1.6,4.2,4.8,6.7,8.6,8.3c4.5,1.8,9.9,2.3,15.1,2.3
			c4.9,0,11.2-0.9,15.3-3.8c2.4-1.7,4.1-4.4,4.1-8.3c0-2.6-1.3-4.3-5.3-6.3l0,0c-6-3-16.5-6-33.3-10.8l0,0l-3.4-0.9
			c-32.7-9.2-68.4-19.3-68.4-62.5c0-23.2,9.2-40.4,23.6-52.2c16.3-13.4,39.3-19.6,62.6-19.6c24.6,0,47.7,5.2,64.4,18.2
			c14.5,11.3,23.8,28.3,24.7,52.6l0.2,6.2h-6.2h-58h-6.9l1-6.8c0.3-2.3,0.1-4.2-0.6-5.7c-0.8-1.8-2.3-3.2-4.1-4.4l-0.2-0.1
			c-1.7-1.3-3.9-2.2-6.1-2.8c-2.7-0.8-5.7-1.1-8.5-1.1c-4.1,0-9.7,0.6-13.3,2.7c-1.6,1-2.7,2.4-2.8,4.4c0.9,6.7,16.6,10.5,35.3,15
			c5.9,1.4,12.1,2.9,18,4.5c14.7,4.1,29.5,9.6,40.8,19.1c11.8,9.9,19.6,23.7,19.6,44c0,25.3-10.5,43-26.4,54.8l0,0
			c-19.1,14.2-45.9,19.7-71.6,19.7C681.5,2824.4,650.2,2821.1,627.9,2802.8z"/>
		<path fill-rule="evenodd" clip-rule="evenodd" fill="#ffffff" d="M1935.6,2801.7h46.1v-43.3h-46.1V2801.7L1935.6,2801.7z
			 M1987.7,2813.6h-58h-6v-6v-55.2v-6h6h58h6v6v55.2v6H1987.7z"/>
		<path fill-rule="evenodd" clip-rule="evenodd" fill="#ffffff" d="M902.3,2810.8h65.3v-83.7h61.2v83.7h65.3v-212.1h-65.3v74h-61.2
			v-74h-65.3V2810.8L902.3,2810.8z M1197.8,2735.1l20.5-65.3h0.6l19,65.3H1197.8L1197.8,2735.1z M1108.4,2810.8h65.6l9.5-30.3h67.4
			l8.9,30.3h67.7l-77.2-212.1h-63.9L1108.4,2810.8L1108.4,2810.8z M1342.1,2810.8h65.3v-64.1h38.6c48.7,0,83.2-24.1,83.2-75.4
			c0-30.3-20.2-72.5-77.8-72.5h-109.3V2810.8L1342.1,2810.8z M1407.4,2653.1h29.1c16,0,30.9,1.2,30.9,20.5
			c0,21.4-17.8,22.6-34.7,22.6h-25.2V2653.1L1407.4,2653.1z M1542.3,2810.8h65.3v-64.1h38.6c48.7,0,83.2-24.1,83.2-75.4
			c0-30.3-20.2-72.5-77.8-72.5h-109.3V2810.8L1542.3,2810.8z M1607.6,2653.1h29.1c16,0,30.9,1.2,30.9,20.5
			c0,21.4-17.8,22.6-34.7,22.6h-25.2V2653.1L1607.6,2653.1z M1792.9,2810.8v-78.1l-74.5-133.9h72.2l35.3,78.1l36.8-78.1h71.6
			l-76,133.9v78.1H1792.9z"/>
	</g>
</g>
</svg>
