<?xml version="1.0" encoding="utf-8"?>
<!-- Generator: Adobe Illustrator 19.1.1, SVG Export Plug-In . SVG Version: 6.00 Build 0)  -->
<svg version="1.0" id="Layer_1" xmlns="http://www.w3.org/2000/svg" xmlns:xlink="http://www.w3.org/1999/xlink" x="0px" y="0px"
	 viewBox="0 0 369 133" style="enable-background:new 0 0 369 133;" xml:space="preserve">
<style type="text/css">
	.st0{fill:#FFFFFF;}
</style>
<g>
	<path class="st0" d="M25.951876,25.474993H12.991211V12.673145h40.176094v12.801847H40.208153v37.144142H25.951876V25.474993z"/>
	<path class="st0" d="M58.426945,12.673145h27.151859c8.034004,0,15.097816,4.826632,15.097816,14.27075
		c0,5.176294-2.203751,10.631987-6.93364,12.520811c3.888351,1.609421,6.285835,6.225277,6.803474,12.452187
		c0.195251,2.377369,0.195251,8.534019,1.555946,10.702244H87.846123c-0.712891-2.517887-0.97171-5.106033-1.165443-7.69418
		c-0.323906-4.758003-0.777969-9.723518-6.416008-9.723518H72.68322v17.417698H58.426945V12.673145z M72.68322,34.497559h7.452797
		c2.656311,0,6.284332-0.488548,6.284332-4.965517c0-3.148584-1.619522-4.96715-7.062302-4.96715H72.68322V34.497559z"/>
	<path class="st0" d="M148.447784,43.312614c0,13.919453-6.803467,20.496025-21.059753,20.496025
		c-14.256271,0-21.12484-6.576572-21.12484-20.496025V12.673145h14.256279v27.211483
		c0,5.035774-0.065079,11.471825,6.933647,11.471825c6.738396,0,6.738396-6.43605,6.738396-11.471825V12.673145h14.256271V43.312614
		z"/>
	<path class="st0" d="M166.993515,45.830502c0,1.189499,0.193741,2.308743,0.517639,3.287468
		c1.036789,3.008064,4.147171,3.637131,6.803482,3.637131c2.333908,0,5.896851-0.838207,5.896851-4.545597
		c0-2.51952-2.008499-3.289101-9.978943-5.736729c-7.322632-2.238487-15.680542-4.406712-15.680542-14.479895
		c0-11.542088,9.13588-16.509235,18.662262-16.509235c10.042511,0,18.986176,4.197568,19.310074,16.298458h-13.478302
		c0.25882-1.888824-0.454071-3.146952-1.684601-3.986792c-1.23204-0.908464-2.7229-1.25976-4.21225-1.25976
		c-1.944931,0-5.120392,0.560438-5.120392,3.357727c0.195251,3.498245,6.93364,4.476971,13.414734,6.297171
		c6.544662,2.027706,13.024231,5.176292,13.024231,14.409634c0,13.01099-11.015732,17.208557-21.383652,17.208557
		c-5.183975,0-20.346878-2.029343-20.346878-17.978138H166.993515z"/>
	<path class="st0" d="M209.706345,25.474993h-12.959152V12.673145h40.174576v12.801847h-12.959152v37.144142h-14.256271V25.474993z"
		/>
	<path class="st0" d="M140.596924,75.188965h35.770096v12.801849h-21.513824v6.225273h18.468536v11.891747h-18.468536v19.02713
		h-14.256271V75.188965z"/>
	<path class="st0" d="M181.431412,75.188965h27.151871c8.035507,0,15.097809,4.826637,15.097809,14.270752
		c0,5.176292-2.203751,10.631989-6.93364,12.520813c3.888351,1.609421,6.285843,6.225273,6.803482,12.452187
		c0.195251,2.377365,0.195251,8.534019,1.555939,10.702248h-14.256271c-0.712891-2.517891-0.97171-5.106033-1.165451-7.694183
		c-0.325409-4.758003-0.777969-9.723518-6.416-9.723518h-7.581451v17.417702h-14.256287V75.188965z M195.687698,97.013382h7.451279
		c2.657822,0,6.285843-0.488548,6.285843-4.965515c0-3.14859-1.619522-4.967155-7.062302-4.967155h-6.67482V97.013382z"/>
	<path class="st0" d="M229.459885,75.188965h38.296249v12.801849h-24.039963v6.225273h21.837723v11.891747h-21.837723v6.225281
		h24.752853v12.801849h-39.00914V75.188965z"/>
	<path class="st0" d="M286.430511,108.346321c0,1.189507,0.195251,2.308746,0.519165,3.287468
		c1.036774,3.008072,4.147156,3.637131,6.803467,3.637131c2.333923,0,5.896851-0.838203,5.896851-4.545593
		c0-2.519524-2.008514-3.289101-9.978943-5.736732c-7.322632-2.238487-15.682068-4.406708-15.682068-14.479897
		c0-11.542084,9.137421-16.509232,18.662292-16.509232c10.044006,0,18.987671,4.197571,19.311584,16.298462h-13.478302
		c0.25882-1.888824-0.454071-3.146957-1.686127-3.986794c-1.23053-0.90847-2.721375-1.259758-4.210724-1.259758
		c-1.944946,0-5.118896,0.560432-5.118896,3.357727c0.193756,3.498245,6.932129,4.476967,13.413239,6.297165
		c6.544647,2.02771,13.024231,5.176292,13.024231,14.409637c0,13.010986-11.015747,17.208557-21.383667,17.208557
		c-5.18396,0-20.346863-2.029343-20.346863-17.978142H286.430511z"/>
	<path class="st0" d="M318.324371,75.188965h14.256287v17.347443h13.348114V75.188965h14.256287v49.945999h-14.256287v-19.796707
		h-13.348114v19.796707h-14.256287V75.188965z"/>
	<path class="st0" d="M313.885071,64.292282h-16.576569V42.631264l-5.430664,21.661018h-12.998505l-5.430664-21.652847v21.652847
		H256.87207V11h23.048584l5.457916,24.249165L290.836487,11h23.048584V64.292282z M300.408295,60.945992h10.377014V14.34629
		h-17.514984l-6.611267,29.379707h-2.433807l-0.414734-1.277733l-6.323669-28.101974h-17.514984v46.599701h10.377014V28.907881
		h2.736511l0.438934,1.23525l7.728271,30.80286h8.251953l8.034027-32.038109h2.736511l0.133209,1.673145V60.945992z"/>
	<path class="st0" d="M360.230469,64.292282h-42.107391V11h41.392975v16.148136H335.4776v2.878986h21.837738V45.26516H335.4776
		v2.878986h24.752869V64.292282z M321.222839,60.945992h35.907837v-9.455555h-24.752838v-9.571568h21.837708v-8.545456h-21.837708
		v-9.571566h24.038452V14.34629h-35.193451V60.945992z"/>
	<path class="st0" d="M42.086487,126.808105H24.730429V73.515823h17.356058V126.808105z M27.830212,123.461815h11.156494V76.862114
		H27.830212V123.461815z"/>
	<path class="st0" d="M58.688793,103.374275H45.675152V73.515823h13.013641V103.374275z M48.774937,100.027985h6.814072V76.862114
		h-6.814072V100.027985z"/>
	<path class="st0" d="M119.223862,126.808105h-16.576576v-21.649582l-5.430672,21.649582H84.21962l-5.429161-21.646317v21.646317
		H62.210861V73.515823h23.051605l5.456406,24.250801l5.454895-24.250801h23.050095V126.808105z M105.74707,123.461815h10.377007
		V76.862114H98.610603l-6.609741,29.38134h-2.436836l-0.416237-1.277733L82.82563,76.862114H65.310646v46.599701h10.380035
		V91.423706h2.735008l0.438934,1.235245l7.725243,30.802864h8.2565l8.035522-32.038109h2.735016l0.130165,1.673141V123.461815z"/>
</g>
</svg>
